<svg xmlns="http://www.w3.org/2000/svg" width="65" height="70" viewBox="0 0 65 70" fill="none">
  <path d="M64.4804 35.0111C64.4804 33.1817 63.7537 31.4271 62.46 30.1335C61.1664 28.8399 59.4119 28.1132 57.5825 28.1132H34.3803V24.1625C36.5035 23.7261 38.4114 22.5709 39.7822 20.8917C41.1529 19.2125 41.9028 17.112 41.9053 14.9443C41.9053 6.51002 33.8849 1.06377 33.5431 0.834888C33.2339 0.628628 32.8706 0.518555 32.499 0.518555C32.1274 0.518555 31.764 0.628628 31.4549 0.834888C31.1131 1.06377 23.0927 6.51002 23.0927 14.9443C23.0952 17.112 23.845 19.2125 25.2158 20.8917C26.5866 22.5709 28.4945 23.7261 30.6177 24.1625V28.1132H7.41553C5.58608 28.1132 3.83156 28.8399 2.53794 30.1335C1.24432 31.4271 0.517578 33.1817 0.517578 35.0111V42.3261C0.519411 44.9981 1.4009 47.5952 3.02592 49.7163V62.6029C3.02592 64.4324 3.75267 66.1869 5.04629 67.4805C6.3399 68.7741 8.09443 69.5009 9.92388 69.5009H55.0741C56.9036 69.5009 58.6581 68.7741 59.9517 67.4805C61.2453 66.1869 61.9721 64.4324 61.9721 62.6029V49.7163C63.5971 47.5952 64.4786 44.9981 64.4804 42.3261V35.0111ZM26.8552 14.9443C26.8552 10.1158 30.6177 6.35011 32.499 4.77299C34.3803 6.34071 38.1428 10.1032 38.1428 14.9443C38.1428 16.4412 37.5482 17.8767 36.4897 18.9351C35.4313 19.9935 33.9958 20.5881 32.499 20.5881C31.0022 20.5881 29.5667 19.9935 28.5082 18.9351C27.4498 17.8767 26.8552 16.4412 26.8552 14.9443ZM4.2801 35.0111C4.2801 34.1795 4.61044 33.382 5.19844 32.794C5.78645 32.206 6.58396 31.8757 7.41553 31.8757H57.5825C58.414 31.8757 59.2115 32.206 59.7995 32.794C60.3876 33.382 60.7179 34.1795 60.7179 35.0111V42.3261C60.7179 46.816 57.1654 50.566 52.7978 50.6851C51.7081 50.7162 50.6233 50.5283 49.6075 50.1328C48.5917 49.7372 47.6656 49.1419 46.8839 48.3821C46.1022 47.6224 45.4808 46.7135 45.0565 45.7094C44.6322 44.7053 44.4136 43.6262 44.4136 42.5361C44.4136 42.0372 44.2154 41.5587 43.8626 41.2059C43.5098 40.8531 43.0313 40.6549 42.5324 40.6549C42.0334 40.6549 41.5549 40.8531 41.2021 41.2059C40.8493 41.5587 40.6511 42.0372 40.6511 42.5361C40.6511 44.6982 39.7922 46.7717 38.2634 48.3006C36.7346 49.8294 34.6611 50.6883 32.499 50.6883C30.3369 50.6883 28.2634 49.8294 26.7346 48.3006C25.2058 46.7717 24.3469 44.6982 24.3469 42.5361C24.3469 42.0372 24.1487 41.5587 23.7959 41.2059C23.4431 40.8531 22.9646 40.6549 22.4656 40.6549C21.9667 40.6549 21.4882 40.8531 21.1354 41.2059C20.7826 41.5587 20.5843 42.0372 20.5843 42.5361C20.5848 43.6265 20.3665 44.7059 19.9424 45.7104C19.5183 46.7149 18.8969 47.6241 18.1152 48.3842C17.3335 49.1443 16.4072 49.7398 15.3912 50.1356C14.3752 50.5314 13.2901 50.7193 12.2002 50.6883C7.83254 50.566 4.2801 46.816 4.2801 42.3261V35.0111ZM55.0741 65.7383H9.92388C9.09231 65.7383 8.2948 65.408 7.70679 64.82C7.11878 64.232 6.78844 63.4345 6.78844 62.6029V52.9803C8.41414 53.8923 10.2366 54.3968 12.0999 54.4508C13.693 54.498 15.2794 54.2236 16.7641 53.644C18.2488 53.0643 19.6014 52.1913 20.7411 51.0771C21.3934 50.4395 21.9718 49.7306 22.4656 48.9638C23.5435 50.6468 25.0273 52.0316 26.7807 52.9908C28.534 53.95 30.5004 54.4527 32.499 54.4527C34.4975 54.4527 36.464 53.95 38.2173 52.9908C39.9707 52.0316 41.4545 50.6468 42.5324 48.9638C43.0281 49.7309 43.6087 50.4398 44.2631 51.0771C46.4811 53.247 49.4629 54.4586 52.5658 54.4508H52.9013C54.7635 54.3963 56.5848 53.8918 58.2095 52.9803V62.6029C58.2095 63.4345 57.8792 64.232 57.2912 64.82C56.7032 65.408 55.9057 65.7383 55.0741 65.7383Z" fill="#141414"/>
</svg>