<svg xmlns="http://www.w3.org/2000/svg" width="62" height="74" viewBox="0 0 62 74" fill="none">
  <path fill-rule="evenodd" clip-rule="evenodd" d="M6.84288 0.596191C6.04468 0.596191 5.42557 1.03878 5.06032 1.5471C4.6998 2.04884 4.54227 2.65239 4.54227 3.21671V6.59408H2.38817C1.56865 6.59408 0.904297 7.25843 0.904297 8.07795V39.9989V39.999V71.92C0.904297 72.7395 1.56865 73.4038 2.38817 73.4038H59.6106C60.4301 73.4038 61.0945 72.7395 61.0945 71.92V39.9989C61.0945 39.1794 60.4301 38.515 59.6106 38.515H57.4549L57.4549 35.1317L57.4549 35.1289C57.4539 34.5664 57.2962 33.9652 56.9369 33.465C56.5729 32.9585 55.9568 32.517 55.1618 32.5141H55.1564H44.991C44.1928 32.5141 43.5737 32.9567 43.2085 33.4651C42.8479 33.9668 42.6904 34.5703 42.6904 35.1347V38.515H42.0196V8.07795C42.0196 7.25843 41.3553 6.59408 40.5357 6.59408H38.3819V3.21672C38.3819 2.65327 38.2249 2.05084 37.8657 1.54964C37.5019 1.04204 36.8853 0.599095 36.0888 0.596201V0.596191H36.0834H25.918C25.1198 0.596191 24.5007 1.03877 24.1355 1.5471C23.7749 2.04884 23.6174 2.65239 23.6174 3.21671V6.59408H21.463H19.3089V3.21671C19.3089 2.65239 19.1514 2.04884 18.7909 1.5471C18.4256 1.03877 17.8065 0.596191 17.0083 0.596191H6.84288ZM24.9685 9.56182C25.0122 9.5657 25.0565 9.56768 25.1013 9.56768C25.146 9.56768 25.1903 9.5657 25.2341 9.56182H39.0519V38.515H3.87204V9.56182H5.89335C5.93709 9.5657 5.98139 9.56768 6.02614 9.56768C6.0709 9.56768 6.11519 9.5657 6.15894 9.56182H21.463H24.9685ZM26.5851 6.59408V3.56393H35.4142V6.59408H26.5851ZM7.51001 3.56393V6.59408H16.3412V3.56393H7.51001ZM3.87204 70.4361V41.4828H40.5357L40.5498 41.4828H44.0817C44.1124 41.4847 44.1432 41.4856 44.1743 41.4856C44.2054 41.4856 44.2362 41.4847 44.2668 41.4828H58.1267V70.4361H3.87204ZM45.6582 38.515V35.4819H54.4872V38.515H45.6582Z" fill="#141414"/>
</svg>