<svg xmlns="http://www.w3.org/2000/svg" width="73" height="70" viewBox="0 0 73 70" fill="none">
  <path d="M12.6842 0.530273L9.03409 4.17516L14.4651 9.60361L18.11 5.95872L12.6842 0.530273ZM60.3191 0.530273L54.8881 5.95872L58.5356 9.60361L63.964 4.17775L60.3191 0.530273ZM36.5004 2.14792C35.6449 2.15829 34.779 2.20754 33.908 2.31383C33.8821 2.31383 33.8561 2.30865 33.8302 2.31383C23.3155 3.51929 14.9473 12.0145 13.493 22.4825C12.3316 30.9078 15.8054 38.5475 21.5942 43.4679C23.9621 45.4887 25.5637 48.2619 26.1308 51.3228V66.8771H32.0415C32.9436 68.4247 34.5898 69.4695 36.5004 69.4695C38.4109 69.4695 40.0571 68.4247 40.9593 66.8771H46.8699V56.5075H47.1136V53.4278C47.1136 49.6274 49.089 45.7958 52.2983 42.8172C56.5913 38.519 59.8318 32.414 59.8318 25.4016C59.8318 12.5952 49.2912 2.02867 36.5004 2.14792ZM36.5004 7.33268C46.5199 7.19269 54.647 15.395 54.647 25.4016C54.647 30.83 52.1324 35.6104 48.6508 39.0893L48.7338 39.1723C45.2739 42.3628 43.0367 46.6612 42.4084 51.3254H31.0693C30.499 46.882 28.5936 42.5813 24.9928 39.4963C20.412 35.6078 17.6823 29.749 18.5948 23.1332C19.7277 14.9672 26.3538 8.40074 34.4731 7.50118C35.1435 7.40772 35.8186 7.35233 36.4952 7.33527L36.5004 7.33268ZM0.207031 25.4016V30.5863H7.98417V25.4016H0.207031ZM65.0165 25.4016V30.5863H72.7937V25.4016H65.0165ZM14.4651 46.3843L9.03668 51.8102L12.6842 55.4576L18.1074 50.0292L14.4651 46.3843ZM58.5356 46.3843L54.8907 50.0292L60.3166 55.4576L63.964 51.8102L58.5356 46.3843ZM31.3156 56.5101H41.6851V61.6949H31.3156V56.5101Z" fill="#141414"/>
</svg>